[img]http://img64.imageshack.us/img64/3231/vanhelsing2004bluray320.jpg[/img]
 
http://www.imdb.com/title/tt0338526/

Source: Van Helsing 2004 BluRay 720p DTS x264-3Li ( Thanks! )

Subs: Albanian, Arabic, Brazilian, Bulgarian, Croatian, Danish, Dutch, English (HI), English, Finnish, French, Greek, Hebrew, Polish, Portuguese, Romanian, Serbian, Slovenian, Spanish, Swedish, Turkish and Vietnamese.

General
Complete name                    : Van Helsing 2004-720p MP4 AAC Multisubs BRRip-CC\Van Helsing 2004-720p MP4 AAC BRRip-CC.mp4
Format                           : MPEG-4
Format profile                   : Base Media
Codec ID                         : isom
File size                        : 2.07 GiB
Duration                         : 2h 11mn
Overall bit rate                 : 2 254 Kbps
Encoded date                     : UTC 2011-11-27 15:58:28
Tagged date                      : UTC 2011-11-27 15:58:28
Writing application              : Yamb 2.1.0.0 

Video
ID                               : 1
Format                           : AVC
Format/Info                      : Advanced Video Codec
Format profile                   : Main@L3.1
Format settings, CABAC           : Yes
Format settings, ReFrames        : 5 frames
Codec ID                         : avc1
Codec ID/Info                    : Advanced Video Coding
Duration                         : 2h 11mn
Bit rate mode                    : Variable
Bit rate                         : 1 866 Kbps
Nominal bit rate                 : 1 895 Kbps
Maximum bit rate                 : 7 958 Kbps
Width                            : 1 280 pixels
Height                           : 688 pixels
Display aspect ratio             : 1.860
Frame rate mode                  : Variable
Frame rate                       : 23.976 fps
Minimum frame rate               : 23.810 fps
Maximum frame rate               : 24.390 fps
Resolution                       : 8 bits
Colorimetry                      : 4:2:0
Scan type                        : Progressive
Bits/(Pixel*Frame)               : 0.088
Stream size                      : 1.72 GiB (83%)
Writing library                  : x264 core 65
Encoding settings                : cabac=1 / ref=5 / deblock=1:0:0 / analyse=0x1:0x111 / me=hex / subme=6 / psy_rd=1.0:0.0 / mixed_ref=0 / me_range=16 / chroma_me=1 / trellis=0 / 8x8dct=0 / cqm=0 / deadzone=21,11 / chroma_qp_offset=-2 / threads=3 / nr=0 / decimate=1 / mbaff=0 / bframes=5 / b_pyramid=0 / b_adapt=1 / b_bias=0 / direct=1 / wpredb=0 / keyint=240 / keyint_min=24 / scenecut=40(pre) / rc=abr / bitrate=1895 / ratetol=1.0 / qcomp=0.60 / qpmin=10 / qpmax=51 / qpstep=4 / ip_ratio=1.40 / pb_ratio=1.30 / aq=1:1.00
Encoded date                     : UTC 2011-11-27 21:49:24
Tagged date                      : UTC 2011-11-27 16:01:11
Color primaries                  : BT.709-5, BT.1361, IEC 61966-2-4, SMPTE RP177
Transfer characteristics         : BT.709-5, BT.1361
Matrix coefficients              : BT.709-5, BT.1361, IEC 61966-2-4 709, SMPTE RP177

Audio
ID                               : 2
Format                           : AAC
Format/Info                      : Advanced Audio Codec
Format version                   : Version 4
Format profile                   : LC
Format settings, SBR             : No
Codec ID                         : 40
Duration                         : 2h 11mn
Bit rate mode                    : Variable
Bit rate                         : 384 Kbps
Maximum bit rate                 : 576 Kbps
Channel(s)                       : 6 channels
Channel positions                : Front: L C R, Rear: L R, LFE
Sampling rate                    : 48.0 KHz
Stream size                      : 361 MiB (17%)
Language                         : English
Encoded date                     : UTC 2011-11-27 16:00:43
Tagged date                      : UTC 2011-11-27 16:01:11

Enjoy..

[img]http://img221.imageshack.us/img221/3443/vanhelsing2004720pmp4aauo.jpg[/img]